<svg xmlns="http://www.w3.org/2000/svg" viewBox="0 0 64 64" shape-rendering="crispEdges">
  <defs>
    <linearGradient id="bg" x1="0" y1="0" x2="0" y2="1">
      <stop offset="0" stop-color="#69d6ff"/>
      <stop offset="1" stop-color="#167a9c"/>
    </linearGradient>
    <linearGradient id="metal" x1="0" y1="0" x2="1" y2="1">
      <stop offset="0" stop-color="#e7eef3"/>
      <stop offset="1" stop-color="#7c8790"/>
    </linearGradient>
  </defs>

  <!-- tile -->
  <rect width="64" height="64" rx="8" fill="url(#bg)"/>
  <rect x="2" y="2" width="60" height="60" rx="7" fill="none" stroke="#0b2f3b" stroke-width="2" opacity="0.55"/>
  <path d="M8 10h48" stroke="#ffffff" stroke-width="2" opacity="0.18"/>

  <!-- kiosk base -->
  <rect x="14" y="26" width="36" height="26" rx="6" fill="url(#metal)" stroke="#2b333a" stroke-width="2"/>
  <rect x="18" y="30" width="28" height="12" rx="4" fill="#0b1e24" opacity="0.88"/>
  <circle cx="24" cy="36" r="2" fill="#7cffb2"/>
  <circle cx="32" cy="36" r="2" fill="#7cffb2"/>
  <circle cx="40" cy="36" r="2" fill="#7cffb2"/>

  <!-- coin + arrow -->
  <circle cx="22" cy="18" r="7" fill="#ffe37a" stroke="#8b5a0a" stroke-width="2"/>
  <path d="M22 13v10" stroke="#8b5a0a" stroke-width="2" opacity="0.55"/>
  <path d="M40 14h10v10H40z" fill="#0b1e24" opacity="0.88" rx="3"/>
  <path d="M42 19h7" stroke="#ffffff" stroke-width="2" stroke-linecap="round" opacity="0.85"/>
  <path d="M47 16l3 3-3 3" fill="none" stroke="#ffffff" stroke-width="2" stroke-linecap="round" stroke-linejoin="round" opacity="0.85"/>

  <!-- label -->
  <path d="M12 56h40" stroke="#0b2f3b" stroke-width="4" opacity="0.25" stroke-linecap="round"/>
</svg>