<svg xmlns="http://www.w3.org/2000/svg" viewBox="0 0 64 64" shape-rendering="crispEdges">
  <defs>
    <linearGradient id="bg" x1="0" y1="0" x2="1" y2="1">
      <stop offset="0" stop-color="#6f7f8a"/>
      <stop offset="1" stop-color="#3d4a54"/>
    </linearGradient>
    <linearGradient id="ore" x1="0" y1="0" x2="1" y2="1">
      <stop offset="0" stop-color="#d9814b"/>
      <stop offset="1" stop-color="#8b3f22"/>
    </linearGradient>
  </defs>

  <rect width="64" height="64" rx="6" fill="url(#bg)"/>
  <rect x="2" y="2" width="60" height="60" rx="5" fill="none" stroke="#1c242b" stroke-width="2" opacity="0.55"/>

  <!-- rock base -->
  <path d="M8 22 L22 10 L46 12 L58 28 L54 50 L34 58 L12 50 Z" fill="#2f3a43" opacity="0.55"/>

  <!-- copper veins -->
  <g fill="url(#ore)">
    <path d="M16 26 L26 20 L34 24 L28 30 Z"/>
    <path d="M36 18 L46 20 L50 30 L40 28 Z"/>
    <path d="M18 40 L30 36 L36 42 L26 46 Z"/>
    <path d="M40 40 L52 38 L50 48 L38 50 Z"/>
  </g>

  <!-- highlights -->
  <g opacity="0.25">
    <path d="M18 26 L26 20" stroke="#ffd7b3" stroke-width="2" stroke-linecap="round"/>
    <path d="M38 18 L46 20" stroke="#ffd7b3" stroke-width="2" stroke-linecap="round"/>
  </g>
</svg>