<svg xmlns="http://www.w3.org/2000/svg" viewBox="0 0 64 64" shape-rendering="crispEdges">
  <defs>
    <linearGradient id="r" x1="0" y1="0" x2="1" y2="1">
      <stop offset="0" stop-color="#6f7f8a"/>
      <stop offset="1" stop-color="#3d4a54"/>
    </linearGradient>
  </defs>

  <rect width="64" height="64" rx="6" fill="url(#r)"/>
  <rect x="2" y="2" width="60" height="60" rx="5" fill="none" stroke="#1c242b" stroke-width="2" opacity="0.55"/>

  <!-- big facets -->
  <path d="M6 18 L26 8 L42 14 L58 10 L58 28 L44 36 L26 30 L10 34 Z" fill="#7f8f99" opacity="0.45"/>
  <path d="M6 40 L18 34 L34 38 L46 34 L58 42 L52 58 L30 56 L10 58 Z" fill="#2f3a43" opacity="0.35"/>

  <!-- cracks -->
  <g stroke="#162028" stroke-width="2" opacity="0.35">
    <path d="M14 14 L22 22 L18 30 L28 40"/>
    <path d="M40 18 L34 26 L40 34 L34 46 L44 54"/>
    <path d="M50 28 L44 30 L50 36"/>
  </g>

  <!-- speckles -->
  <g fill="#10161b" opacity="0.25">
    <rect x="12" y="50" width="3" height="3" rx="1"/>
    <rect x="22" y="18" width="3" height="3" rx="1"/>
    <rect x="52" y="18" width="3" height="3" rx="1"/>
    <rect x="46" y="48" width="3" height="3" rx="1"/>
    <rect x="30" y="28" width="3" height="3" rx="1"/>
  </g>

  <path d="M8 8h42" stroke="#e4eef5" stroke-width="2" opacity="0.12"/>
</svg>