<svg xmlns="http://www.w3.org/2000/svg" viewBox="0 0 64 64" shape-rendering="crispEdges">
  <defs>
    <linearGradient id="bg" x1="0" y1="0" x2="1" y2="1">
      <stop offset="0" stop-color="#6f7f8a"/>
      <stop offset="1" stop-color="#3d4a54"/>
    </linearGradient>
    <linearGradient id="ore" x1="0" y1="0" x2="1" y2="1">
      <stop offset="0" stop-color="#f2f5f8"/>
      <stop offset="1" stop-color="#9aa7b3"/>
    </linearGradient>
  </defs>

  <rect width="64" height="64" rx="6" fill="url(#bg)"/>
  <rect x="2" y="2" width="60" height="60" rx="5" fill="none" stroke="#1c242b" stroke-width="2" opacity="0.55"/>

  <path d="M8 22 L22 10 L46 12 L58 28 L54 50 L34 58 L12 50 Z" fill="#2f3a43" opacity="0.55"/>

  <g fill="url(#ore)">
    <path d="M14 28 L26 18 L34 26 L22 34 Z"/>
    <path d="M36 16 L50 22 L46 34 L34 28 Z"/>
    <path d="M18 42 L30 36 L38 44 L26 50 Z"/>
    <path d="M40 38 L52 40 L48 52 L38 50 Z"/>
  </g>

  <g opacity="0.28">
    <path d="M18 24 L28 20" stroke="#ffffff" stroke-width="2" stroke-linecap="round"/>
    <path d="M38 20 L48 24" stroke="#ffffff" stroke-width="2" stroke-linecap="round"/>
  </g>
</svg>